<svg version="1.1" id="Layer_1" xmlns="http://www.w3.org/2000/svg" xmlns:xlink="http://www.w3.org/1999/xlink" x="0px" y="0px"
	 width="100%" viewBox="0 0 512 512" enable-background="new 0 0 512 512" xml:space="preserve">
<path fill="#D7D6D9" opacity="1.000000" stroke="none" 
	d="
M278.000000,513.000000 
	C185.355820,513.000000 93.211639,513.000000 1.033728,513.000000 
	C1.033728,342.397461 1.033728,171.794907 1.033728,1.096182 
	C171.560867,1.096182 342.121796,1.096182 512.841370,1.096182 
	C512.841370,171.666550 512.841370,342.333252 512.841370,513.000000 
	C434.794891,513.000000 356.647430,513.000000 278.000000,513.000000 
M464.998169,337.499939 
	C464.597015,280.014954 464.384430,222.527420 463.604980,165.047592 
	C463.478363,155.713638 462.244751,145.909821 459.115356,137.186859 
	C446.691010,102.555191 417.851227,82.985901 381.093933,83.220917 
	C293.950745,83.778099 206.807251,84.336731 119.666496,85.168861 
	C111.614151,85.245758 103.275955,86.273781 95.592918,88.591774 
	C67.925240,96.939209 49.691822,115.376053 41.570057,143.082092 
	C39.268768,150.932541 38.410385,159.473907 38.431515,167.694443 
	C38.587421,228.345245 39.166451,288.994843 39.533714,349.645325 
	C39.624374,364.616852 42.887661,378.747650 50.798199,391.488068 
	C66.802353,417.263733 90.187134,430.666443 120.507744,430.665710 
	C170.993988,430.664459 221.480331,430.074249 271.966431,429.706116 
	C311.121826,429.420624 350.310638,429.985168 389.421509,428.504913 
	C420.322388,427.335388 442.895966,411.230957 457.042145,383.681183 
	C464.335571,369.477264 465.716461,354.154175 464.998169,337.499939 
z"/>
<path fill="#040303" opacity="1.000000" stroke="none" 
	d="
M465.001526,337.999878 
	C465.716461,354.154175 464.335571,369.477264 457.042145,383.681183 
	C442.895966,411.230957 420.322388,427.335388 389.421509,428.504913 
	C350.310638,429.985168 311.121826,429.420624 271.966431,429.706116 
	C221.480331,430.074249 170.993988,430.664459 120.507744,430.665710 
	C90.187134,430.666443 66.802353,417.263733 50.798199,391.488068 
	C42.887661,378.747650 39.624374,364.616852 39.533714,349.645325 
	C39.166451,288.994843 38.587421,228.345245 38.431515,167.694443 
	C38.410385,159.473907 39.268768,150.932541 41.570057,143.082092 
	C49.691822,115.376053 67.925240,96.939209 95.592918,88.591774 
	C103.275955,86.273781 111.614151,85.245758 119.666496,85.168861 
	C206.807251,84.336731 293.950745,83.778099 381.093933,83.220917 
	C417.851227,82.985901 446.691010,102.555191 459.115356,137.186859 
	C462.244751,145.909821 463.478363,155.713638 463.604980,165.047592 
	C464.384430,222.527420 464.597015,280.014954 465.001526,337.999878 
M75.935043,381.488983 
	C87.079834,396.654449 102.117043,404.234253 120.882095,404.114075 
	C209.019226,403.549744 297.156219,402.947174 385.291718,402.180328 
	C390.700714,402.133270 396.321198,401.247864 401.459564,399.574310 
	C424.440674,392.089630 438.499725,372.286682 438.374481,347.658539 
	C438.064331,286.678558 437.621918,225.699158 437.150421,164.720154 
	C436.899719,132.298462 413.849365,109.635254 381.299896,109.844994 
	C293.829224,110.408592 206.359039,111.050362 118.888985,111.704720 
	C115.574905,111.729515 112.177605,111.818787 108.965508,112.534828 
	C80.922272,118.786255 64.739838,139.139969 64.918861,167.927078 
	C65.293953,228.240295 65.789589,288.552795 66.114571,348.866272 
	C66.177399,360.526245 69.003899,371.227112 75.935043,381.488983 
z"/>
<path fill="#FD5023" opacity="1.000000" stroke="none" 
	d="
M75.699402,381.217773 
	C69.003899,371.227112 66.177399,360.526245 66.114571,348.866272 
	C65.789589,288.552795 65.293953,228.240295 64.918861,167.927078 
	C64.739838,139.139969 80.922272,118.786255 108.965508,112.534828 
	C112.177605,111.818787 115.574905,111.729515 118.888985,111.704720 
	C206.359039,111.050362 293.829224,110.408592 381.299896,109.844994 
	C413.849365,109.635254 436.899719,132.298462 437.150421,164.720154 
	C437.621918,225.699158 438.064331,286.678558 438.374481,347.658539 
	C438.499725,372.286682 424.440674,392.089630 401.459564,399.574310 
	C396.321198,401.247864 390.700714,402.133270 385.291718,402.180328 
	C297.156219,402.947174 209.019226,403.549744 120.882095,404.114075 
	C102.117043,404.234253 87.079834,396.654449 75.699402,381.217773 
M190.076767,165.533661 
	C180.952133,161.122894 171.963120,156.386261 162.621002,152.498062 
	C159.782791,151.316803 155.683411,151.665787 152.662018,152.731888 
	C146.047501,155.065826 144.589752,160.806183 144.640121,167.289688 
	C145.108658,227.594788 145.491470,287.900574 145.931335,348.205933 
	C146.031265,361.904419 155.517105,367.504944 167.858734,361.242310 
	C189.340515,350.341553 210.831589,339.459045 232.305237,328.542267 
	C271.102386,308.818604 309.886353,289.068909 348.684723,269.347687 
	C354.064453,266.613159 358.010651,262.849976 357.984100,256.348816 
	C357.957794,249.898972 354.204987,246.052597 348.711761,243.359573 
	C296.050903,217.542755 243.410263,191.684784 190.076767,165.533661 
z"/>
<path fill="#050302" opacity="1.000000" stroke="none" 
	d="
M190.420288,165.686142 
	C243.410263,191.684784 296.050903,217.542755 348.711761,243.359573 
	C354.204987,246.052597 357.957794,249.898972 357.984100,256.348816 
	C358.010651,262.849976 354.064453,266.613159 348.684723,269.347687 
	C309.886353,289.068909 271.102386,308.818604 232.305237,328.542267 
	C210.831589,339.459045 189.340515,350.341553 167.858734,361.242310 
	C155.517105,367.504944 146.031265,361.904419 145.931335,348.205933 
	C145.491470,287.900574 145.108658,227.594788 144.640121,167.289688 
	C144.589752,160.806183 146.047501,155.065826 152.662018,152.731888 
	C155.683411,151.665787 159.782791,151.316803 162.621002,152.498062 
	C171.963120,156.386261 180.952133,161.122894 190.420288,165.686142 
M179.833328,325.403381 
	C224.419830,302.686920 269.006317,279.970459 315.014801,256.529510 
	C266.556702,232.707977 219.478516,209.564819 172.340027,186.391998 
	C172.340027,234.026733 172.340027,281.163025 172.340027,329.091492 
	C175.304504,327.608582 177.214371,326.653229 179.833328,325.403381 
z"/>
<path fill="#D5D4D7" opacity="1.000000" stroke="none" 
	d="
M179.478790,325.550598 
	C177.214371,326.653229 175.304504,327.608582 172.340027,329.091492 
	C172.340027,281.163025 172.340027,234.026733 172.340027,186.391998 
	C219.478516,209.564819 266.556702,232.707977 315.014801,256.529510 
	C269.006317,279.970459 224.419830,302.686920 179.478790,325.550598 
z"/>
</svg>